<svg xmlns="http://www.w3.org/2000/svg" xmlns:xlink="http://www.w3.org/1999/xlink" width="1280" zoomAndPan="magnify" viewBox="0 0 960 599.999999" height="800" preserveAspectRatio="xMidYMid meet" version="1.0"><defs><clipPath id="d8df4b8678"><path d="M 492.679688 0 L 960 0 L 960 482.773438 L 492.679688 482.773438 Z M 492.679688 0 " clip-rule="nonzero"/></clipPath><clipPath id="3da1cc9049"><path d="M 333 0 L 840 0 L 840 600 L 333 600 Z M 333 0 " clip-rule="nonzero"/></clipPath><clipPath id="a91fdbb78d"><path d="M 194.105469 30.992188 L 700.175781 -80.066406 L 839.867188 556.472656 L 333.796875 667.53125 Z M 194.105469 30.992188 " clip-rule="nonzero"/></clipPath><clipPath id="944d16781c"><path d="M 419.398438 -18.449219 L 474.882812 -30.625 L 839.78125 556.09375 L 333.714844 667.152344 Z M 419.398438 -18.449219 " clip-rule="nonzero"/></clipPath><clipPath id="f768193fa4"><path d="M 463 161 L 960 161 L 960 600 L 463 600 Z M 463 161 " clip-rule="nonzero"/></clipPath><clipPath id="db4b311def"><path d="M 814.804688 60.003906 L 1243.304688 334.414062 L 891.710938 883.429688 L 463.210938 609.015625 Z M 814.804688 60.003906 " clip-rule="nonzero"/></clipPath><clipPath id="87a79a8ef6"><path d="M 972.664062 161.097656 L 1085.445312 233.320312 L 891.875 883.175781 L 463.375 608.765625 Z M 972.664062 161.097656 " clip-rule="nonzero"/></clipPath></defs><rect x="-96" width="1152" fill="#ffffff" y="-60" height="719.999999" fill-opacity="1"/><rect x="-96" width="1152" fill="#ffffff" y="-60" height="719.999999" fill-opacity="1"/><g clip-path="url(#d8df4b8678)"><path fill="#f6f6f6" d="M 492.679688 -131.023438 L 960 -131.023438 L 960 482.332031 L 492.679688 482.332031 Z M 492.679688 -131.023438 " fill-opacity="1" fill-rule="nonzero"/></g><g clip-path="url(#3da1cc9049)"><g clip-path="url(#a91fdbb78d)"><g clip-path="url(#944d16781c)"><path fill="#fafafa" d="M 194.105469 30.992188 L 700.175781 -80.066406 L 839.867188 556.472656 L 333.796875 667.53125 Z M 194.105469 30.992188 " fill-opacity="1" fill-rule="nonzero"/></g></g></g><g clip-path="url(#f768193fa4)"><g clip-path="url(#db4b311def)"><g clip-path="url(#87a79a8ef6)"><path fill="#f1f1f1" d="M 814.804688 60.003906 L 1243.304688 334.414062 L 891.710938 883.429688 L 463.210938 609.015625 Z M 814.804688 60.003906 " fill-opacity="1" fill-rule="nonzero"/></g></g></g></svg>